<svg width="301" height="117" viewBox="0 0 301 117" fill="none" xmlns="http://www.w3.org/2000/svg">
<g clip-path="url(#clip0_1702_125)">
<path d="M182.679 116.14C181.655 116.14 180.631 116.134 179.607 116.122L179.628 114.344C181.743 114.37 183.869 114.37 186.008 114.344L186.029 116.122C184.909 116.133 183.782 116.14 182.679 116.14ZM173.188 115.973C171.055 115.898 168.893 115.799 166.788 115.671L166.894 113.893C168.996 114.017 171.14 114.12 173.263 114.195L173.188 115.973ZM192.451 115.973L192.387 114.195C194.521 114.12 196.654 114.024 198.766 113.903L198.866 115.681C196.736 115.795 194.578 115.895 192.451 115.969V115.973ZM205.274 115.244L205.135 113.466C207.24 113.299 209.378 113.11 211.493 112.897L211.671 114.675C209.545 114.881 207.39 115.073 205.274 115.24V115.244ZM160.365 115.215C158.232 115.034 156.098 114.828 153.965 114.593L154.157 112.815C156.262 113.046 158.399 113.256 160.504 113.434L160.365 115.215ZM218.054 113.967L217.841 112.189C219.942 111.933 222.072 111.656 224.17 111.357L224.423 113.135C222.311 113.427 220.17 113.693 218.054 113.964V113.967ZM147.6 113.804C145.466 113.512 143.332 113.189 141.245 112.844L141.537 111.09C143.61 111.446 145.733 111.752 147.841 112.043L147.6 113.804ZM230.77 112.168L230.486 110.411C232.577 110.056 234.696 109.7 236.78 109.344L237.1 111.094C234.988 111.457 232.872 111.823 230.77 112.164V112.168ZM134.923 111.709C132.828 111.304 130.712 110.863 128.632 110.397L129.02 108.662C131.082 109.124 133.18 109.561 135.26 109.963L134.923 111.709ZM243.405 109.867L243.049 108.125C245.112 107.709 247.217 107.261 249.297 106.802L249.681 108.537C247.594 108.996 245.478 109.444 243.405 109.864V109.867ZM122.381 108.904C120.304 108.374 118.22 107.808 116.179 107.222L116.67 105.515C118.693 106.094 120.763 106.656 122.822 107.179L122.381 108.904ZM255.943 107.09L255.523 105.358C257.586 104.86 259.67 104.338 261.722 103.804L262.17 105.525C260.111 106.059 258.013 106.581 255.943 107.086V107.09ZM110.031 105.351C107.986 104.693 105.934 104 103.932 103.281L104.53 101.607C106.514 102.318 108.548 103.008 110.575 103.658L110.031 105.351ZM268.368 103.847L267.888 102.136C269.929 101.564 271.991 100.966 274.025 100.358L274.534 102.062C272.493 102.67 270.416 103.271 268.368 103.843V103.847ZM97.9048 101.002C95.9134 100.213 93.9114 99.384 91.9556 98.5341L92.6668 96.9054C94.6013 97.7447 96.5784 98.5697 98.5591 99.3484L97.9048 101.002ZM280.682 100.152L280.141 98.4559C282.161 97.8122 284.202 97.1437 286.211 96.4645L286.78 98.1501C284.746 98.8399 282.695 99.5156 280.668 100.181L280.682 100.152ZM292.847 96.0413L292.25 94.3664C294.234 93.6552 296.25 92.9191 298.248 92.1688L298.874 93.833C296.862 94.5976 294.824 95.3408 292.833 96.052L292.847 96.0413ZM86.1132 95.8671C84.1752 94.9425 82.2371 93.9753 80.3524 92.9902L81.1739 91.4149C83.0408 92.3892 84.961 93.3458 86.8635 94.2597L86.1132 95.8671ZM74.6985 89.9107C72.8351 88.8439 70.9718 87.7451 69.1618 86.6249L70.0971 85.1136C71.875 86.2231 73.7312 87.3184 75.5768 88.3674L74.6985 89.9107ZM63.7567 83.1329C61.9787 81.9381 60.2007 80.6935 58.4867 79.4382L59.5358 78.0158C61.2356 79.2604 62.9922 80.505 64.7489 81.6749L63.7567 83.1329ZM53.3662 75.5407C51.6878 74.2072 50.02 72.8311 48.4056 71.4407L49.5649 70.0929C51.1615 71.4655 52.8115 72.8311 54.4721 74.1468L53.3662 75.5407ZM43.6157 67.1485C42.8085 66.3982 41.9977 65.623 41.1976 64.8478C40.458 64.1365 39.7184 63.3933 38.9965 62.6643L40.2624 61.4162C40.9736 62.1274 41.7061 62.8599 42.4387 63.5711C43.2281 64.3393 44.0317 65.1073 44.8283 65.8505L43.6157 67.1485ZM34.5657 57.9953C33.1433 56.4199 31.7031 54.7948 30.327 53.1519L31.689 52.0069C33.0509 53.6285 34.4591 55.2393 35.8815 56.7969L34.5657 57.9953ZM26.2874 48.1451C24.9824 46.4631 23.6916 44.7241 22.447 42.9781L23.8943 41.9469C25.1246 43.6715 26.4048 45.3927 27.692 47.0533L26.2874 48.1451ZM18.8199 37.6725C17.6535 35.8945 16.4978 34.0631 15.3883 32.2282L16.9103 31.3107C18.0091 33.1243 19.1506 34.9379 20.3063 36.6946L18.8199 37.6725ZM12.163 26.6488C11.1318 24.7925 10.1148 22.8829 9.14045 20.9591L10.7265 20.1519C11.6902 22.0437 12.6965 23.932 13.717 25.7705L12.163 26.6488ZM6.32058 15.1912C5.42448 13.271 4.54264 11.2796 3.70343 9.32022L5.33913 8.60902C6.17123 10.5648 7.04602 12.5207 7.93501 14.4267L6.32058 15.1912ZM1.28179 3.36386C0.975977 2.57442 0.673702 1.78144 0.375 0.977775L2.04273 0.355469C2.33788 1.15202 2.63659 1.93791 2.93885 2.72024L1.28179 3.36386Z" fill="black"/>
<path d="M290.498 88.1992L289.809 89.8386L297.895 93.2275L293.923 101.044L295.509 101.851L300.345 92.3278L290.498 88.1992Z" fill="black"/>
</g>
<defs>
<clipPath id="clip0_1702_125">
<rect width="300" height="115.76" fill="white" transform="translate(0.347656 0.382812)"/>
</clipPath>
</defs>
</svg>