<svg width="301" height="117" viewBox="0 0 301 117" fill="none" xmlns="http://www.w3.org/2000/svg">
<g clip-path="url(#clip0_1702_128)">
<path d="M182.441 0.801373C181.417 0.801373 180.393 0.807318 179.369 0.819171L179.39 2.59719C181.505 2.57111 183.631 2.57111 185.769 2.59719L185.791 0.819171C184.671 0.808503 183.543 0.801373 182.441 0.801373ZM172.95 0.968497C170.816 1.04317 168.654 1.14273 166.549 1.27075L166.656 3.04877C168.758 2.92431 170.902 2.82119 173.025 2.74652L172.95 0.968497ZM192.213 0.968497L192.149 2.74652C194.282 2.82119 196.416 2.91723 198.528 3.03813L198.628 1.26012C196.498 1.14632 194.339 1.04673 192.213 0.972056V0.968497ZM205.036 1.6975L204.897 3.47552C207.002 3.64265 209.139 3.83112 211.255 4.04448L211.433 2.26646C209.306 2.06021 207.151 1.8682 205.036 1.70106V1.6975ZM160.127 1.72593C157.994 1.90729 155.86 2.11354 153.726 2.34824L153.918 4.12626C156.024 3.89512 158.161 3.68531 160.266 3.50751L160.127 1.72593ZM217.816 2.97411L217.602 4.75213C219.704 5.00816 221.834 5.28552 223.932 5.58423L224.185 3.80621C222.072 3.51461 219.932 3.24793 217.816 2.97767V2.97411ZM147.361 3.13767C145.228 3.42927 143.094 3.75289 141.007 4.09783L141.298 5.85093C143.371 5.49533 145.494 5.18953 147.603 4.89794L147.361 3.13767ZM230.532 4.77348L230.247 6.53014C232.338 6.88575 234.458 7.24135 236.542 7.59696L236.862 5.84741C234.749 5.4847 232.634 5.11842 230.532 4.77704V4.77348ZM134.684 5.23218C132.59 5.63757 130.474 6.07854 128.394 6.54438L128.781 8.27973C130.844 7.81745 132.942 7.38004 135.022 6.97821L134.684 5.23218ZM243.166 7.07423L242.811 8.8167C244.873 9.23275 246.978 9.6808 249.059 10.1395L249.443 8.40418C247.355 7.94545 245.24 7.4974 243.166 7.07779V7.07423ZM122.142 8.0379C120.066 8.56775 117.982 9.13315 115.941 9.7199L116.431 11.4268C118.455 10.8472 120.524 10.2853 122.583 9.76257L122.142 8.0379ZM255.705 9.85147L255.285 11.5833C257.348 12.0811 259.432 12.6039 261.483 13.1373L261.931 11.4161C259.872 10.8827 257.774 10.36 255.705 9.85503V9.85147ZM109.792 11.5904C107.748 12.2482 105.696 12.9417 103.694 13.66L104.291 15.3349C106.275 14.6237 108.309 13.9338 110.336 13.2831L109.792 11.5904ZM268.129 13.0946L267.649 14.805C269.69 15.3776 271.753 15.975 273.787 16.5831L274.295 14.8797C272.254 14.2716 270.178 13.6707 268.129 13.0981V13.0946ZM97.6665 15.9394C95.6752 16.7288 93.6731 17.5574 91.7174 18.4073L92.4286 20.036C94.363 19.1967 96.3402 18.3717 98.3208 17.593L97.6665 15.9394ZM280.444 16.7893L279.903 18.4855C281.923 19.1292 283.964 19.7977 285.973 20.4769L286.542 18.7914C284.508 18.1015 282.456 17.4258 280.429 16.7609L280.444 16.7893ZM292.609 20.9001L292.011 22.575C293.995 23.2862 296.012 24.0223 298.01 24.7726L298.636 23.1084C296.623 22.3438 294.586 21.6006 292.594 20.8894L292.609 20.9001ZM85.8749 21.0743C83.9369 21.9989 81.9988 22.9661 80.1142 23.9512L80.9356 25.5265C82.8025 24.5522 84.7227 23.5956 86.6252 22.6817L85.8749 21.0743ZM74.4602 27.0307C72.5969 28.0975 70.7335 29.1963 68.9235 30.3165L69.8588 31.8278C71.6368 30.7183 73.493 29.623 75.3385 28.574L74.4602 27.0307ZM63.5184 33.8085C61.7405 35.0033 59.9624 36.2479 58.2485 37.5032L59.2975 38.9256C60.9973 37.681 62.7539 36.4364 64.5106 35.2665L63.5184 33.8085ZM53.1279 41.4007C51.4495 42.7342 49.7817 44.1103 48.1673 45.5007L49.3266 46.8485C50.9232 45.4759 52.5732 44.1103 54.2338 42.7946L53.1279 41.4007ZM43.3774 49.7929C42.5702 50.5432 41.7594 51.3184 40.9593 52.0937C40.2197 52.8049 39.4801 53.5481 38.7582 54.2771L40.0241 55.5252C40.7353 54.814 41.4679 54.0815 42.2004 53.3703C42.9898 52.6022 43.7934 51.8341 44.59 51.0909L43.3774 49.7929ZM34.3274 58.9461C32.905 60.5215 31.4649 62.1466 30.0887 63.7895L31.4507 64.9345C32.8126 63.3129 34.2208 61.7021 35.6432 60.1445L34.3274 58.9461ZM26.0492 68.7963C24.7441 70.4784 23.4533 72.2173 22.2087 73.9633L23.656 74.9945C24.8864 73.2699 26.1665 71.5487 27.4538 69.8881L26.0492 68.7963ZM18.5816 79.2689C17.4153 81.0469 16.2595 82.8783 15.15 84.7132L16.672 85.6307C17.7708 83.8171 18.9123 82.0035 20.068 80.2468L18.5816 79.2689ZM11.9247 90.2926C10.8935 92.1489 9.8765 94.0585 8.90217 95.9823L10.4882 96.7895C11.4519 94.8977 12.4582 93.0094 13.4788 91.1709L11.9247 90.2926ZM6.0823 101.75C5.1862 103.67 4.30436 105.662 3.46515 107.621L5.10085 108.332C5.93295 106.377 6.80773 104.421 7.69673 102.515L6.0823 101.75ZM1.04351 113.578C0.737696 114.367 0.435421 115.16 0.136719 115.964L1.80445 116.586C2.0996 115.789 2.39831 115.003 2.70056 114.221L1.04351 113.578Z" fill="black"/>
<path d="M290.26 28.7422L289.57 27.1029L297.657 23.714L293.685 15.8978L295.271 15.0906L300.107 24.6136L290.26 28.7422Z" fill="black"/>
</g>
<defs>
<clipPath id="clip0_1702_128">
<rect width="300" height="115.76" fill="white" transform="matrix(1 0 0 -1 0.109375 116.555)"/>
</clipPath>
</defs>
</svg>