<?xml version="1.0" encoding="UTF-8"?>
<svg id="Layer_1" data-name="Layer 1" xmlns="http://www.w3.org/2000/svg" viewBox="0 0 606 500">
  <defs>
    <style>
      .cls-1 {
        stroke: #1a1a1a;
        stroke-width: 1.5px;
      }

      .cls-1, .cls-2 {
        fill: #d9d9d9;
      }

      .cls-3 {
        fill: none;
        stroke: rgba(1, 11, 21, .1);
      }

      .cls-4 {
        fill: rgba(1, 11, 21, .1);
      }

      .cls-4, .cls-5, .cls-6, .cls-7, .cls-8, .cls-2, .cls-9, .cls-10, .cls-11 {
        stroke-width: 0px;
      }

      .cls-5 {
        fill: rgba(217, 217, 217, .5);
      }

      .cls-6 {
        fill: rgba(1, 11, 21, .5);
      }

      .cls-7 {
        fill: #f2f2f2;
      }

      .cls-8 {
        fill: #1a1a1a;
      }

      .cls-9 {
        fill: #fff;
      }

      .cls-10 {
        fill: #e5e5e5;
      }

      .cls-11 {
        fill: #010b15;
      }
    </style>
  </defs>
  <rect class="cls-7" x="318" y="265" width="288" height="235" rx="6" ry="6"/>
  <rect class="cls-3" x="318.5" y="265.5" width="287" height="234" rx="5.5" ry="5.5"/>
  <path class="cls-2" d="m366,477h10c2.21,0,4,1.79,4,4h0c0,2.21-1.79,4-4,4h-10c-2.21,0-4-1.79-4-4h0c0-2.21,1.79-4,4-4Z"/>
  <circle class="cls-5" cx="356" cy="481" r="4"/>
  <path class="cls-10" d="m376.6,280.33h-21.73c-1.66,0-3,1.34-3,3v184.49c0,1.66,1.34,3,3,3h21.73c1.66,0,3-1.34,3-3v-184.49c0-1.66-1.34-3-3-3Z"/>
  <path class="cls-8" d="m376.6,380.66h-21.73c-1.66,0-3,1.34-3,3v84.16c0,1.66,1.34,3,3,3h21.73c1.66,0,3-1.34,3-3v-84.16c0-1.66-1.34-3-3-3Z"/>
  <path class="cls-2" d="m408,477h10c2.21,0,4,1.79,4,4h0c0,2.21-1.79,4-4,4h-10c-2.21,0-4-1.79-4-4h0c0-2.21,1.79-4,4-4Z"/>
  <circle class="cls-5" cx="398" cy="481" r="4"/>
  <path class="cls-10" d="m419.05,280.33h-21.73c-1.66,0-3,1.34-3,3v184.49c0,1.66,1.34,3,3,3h21.73c1.66,0,3-1.34,3-3v-184.49c0-1.66-1.34-3-3-3Z"/>
  <path class="cls-8" d="m419.05,415.36h-21.73c-1.66,0-3,1.34-3,3v49.46c0,1.66,1.34,3,3,3h21.73c1.66,0,3-1.34,3-3v-49.46c0-1.66-1.34-3-3-3Z"/>
  <path class="cls-2" d="m451,477h10c2.21,0,4,1.79,4,4h0c0,2.21-1.79,4-4,4h-10c-2.21,0-4-1.79-4-4h0c0-2.21,1.79-4,4-4Z"/>
  <circle class="cls-5" cx="441" cy="481" r="4"/>
  <path class="cls-10" d="m461.48,280.33h-21.73c-1.66,0-3,1.34-3,3v184.49c0,1.66,1.34,3,3,3h21.73c1.66,0,3-1.34,3-3v-184.49c0-1.66-1.34-3-3-3Z"/>
  <path class="cls-8" d="m461.48,315.36h-21.73c-1.66,0-3,1.34-3,3v149.46c0,1.66,1.34,3,3,3h21.73c1.66,0,3-1.34,3-3v-149.46c0-1.66-1.34-3-3-3Z"/>
  <path class="cls-10" d="m503.94,280.33h-21.73c-1.66,0-3,1.34-3,3v184.49c0,1.66,1.34,3,3,3h21.73c1.66,0,3-1.34,3-3v-184.49c0-1.66-1.34-3-3-3Z"/>
  <path class="cls-8" d="m503.94,341.79h-21.73c-1.66,0-3,1.34-3,3v123.03c0,1.66,1.34,3,3,3h21.73c1.66,0,3-1.34,3-3v-123.03c0-1.66-1.34-3-3-3Z"/>
  <path class="cls-10" d="m546.39,280.33h-21.73c-1.66,0-3,1.34-3,3v184.49c0,1.66,1.34,3,3,3h21.73c1.66,0,3-1.34,3-3v-184.49c0-1.66-1.34-3-3-3Z"/>
  <path class="cls-8" d="m546.39,375.57h-21.73c-1.66,0-3,1.34-3,3v89.25c0,1.66,1.34,3,3,3h21.73c1.66,0,3-1.34,3-3v-89.25c0-1.66-1.34-3-3-3Z"/>
  <path class="cls-10" d="m588.85,280.33h-21.73c-1.66,0-3,1.34-3,3v184.49c0,1.66,1.34,3,3,3h21.73c1.66,0,3-1.34,3-3v-184.49c0-1.66-1.34-3-3-3Z"/>
  <path class="cls-8" d="m588.85,298.45h-21.73c-1.66,0-3,1.34-3,3v166.38c0,1.66,1.34,3,3,3h21.73c1.66,0,3-1.34,3-3v-166.38c0-1.66-1.34-3-3-3Z"/>
  <path class="cls-2" d="m335,331h9c1.1,0,2,.9,2,2h0c0,1.1-.9,2-2,2h-9c-1.1,0-2-.9-2-2h0c0-1.1.9-2,2-2Z"/>
  <path class="cls-5" d="m335.5,324h0c1.38,0,2.5,1.12,2.5,2.5h0c0,1.38-1.12,2.5-2.5,2.5h0c-1.38,0-2.5-1.12-2.5-2.5h0c0-1.38,1.12-2.5,2.5-2.5Z"/>
  <path class="cls-2" d="m335,365h9c1.1,0,2,.9,2,2h0c0,1.1-.9,2-2,2h-9c-1.1,0-2-.9-2-2h0c0-1.1.9-2,2-2Z"/>
  <path class="cls-5" d="m335.5,358h0c1.38,0,2.5,1.12,2.5,2.5h0c0,1.38-1.12,2.5-2.5,2.5h0c-1.38,0-2.5-1.12-2.5-2.5h0c0-1.38,1.12-2.5,2.5-2.5Z"/>
  <path class="cls-2" d="m335,399h9c1.1,0,2,.9,2,2h0c0,1.1-.9,2-2,2h-9c-1.1,0-2-.9-2-2h0c0-1.1.9-2,2-2Z"/>
  <path class="cls-5" d="m335.5,392h0c1.38,0,2.5,1.12,2.5,2.5h0c0,1.38-1.12,2.5-2.5,2.5h0c-1.38,0-2.5-1.12-2.5-2.5h0c0-1.38,1.12-2.5,2.5-2.5Z"/>
  <path class="cls-2" d="m335,433h9c1.1,0,2,.9,2,2h0c0,1.1-.9,2-2,2h-9c-1.1,0-2-.9-2-2h0c0-1.1.9-2,2-2Z"/>
  <path class="cls-5" d="m335.5,426h0c1.38,0,2.5,1.12,2.5,2.5h0c0,1.38-1.12,2.5-2.5,2.5h0c-1.38,0-2.5-1.12-2.5-2.5h0c0-1.38,1.12-2.5,2.5-2.5Z"/>
  <path class="cls-2" d="m335,467h9c1.1,0,2,.9,2,2h0c0,1.1-.9,2-2,2h-9c-1.1,0-2-.9-2-2h0c0-1.1.9-2,2-2Z"/>
  <path class="cls-5" d="m335.5,460h0c1.38,0,2.5,1.12,2.5,2.5h0c0,1.38-1.12,2.5-2.5,2.5h0c-1.38,0-2.5-1.12-2.5-2.5h0c0-1.38,1.12-2.5,2.5-2.5Z"/>
  <rect class="cls-7" y="265" width="288" height="235" rx="6" ry="6"/>
  <rect class="cls-3" x=".5" y="265.5" width="287" height="234" rx="5.5" ry="5.5"/>
  <path class="cls-10" d="m48.08,339.48l-3.98-3.45-4.15-3.34-3.55-1.86-2.83-.86-3.75.86-.91.95-2.43-.4-1,1.11,1.21,1.41.1,1.92,1.02.3-.51,1.59-1.81-1.92-3.18.92v1.59l.92,1.32,1.92.6c1.11-.4-.21,1.02-.21,1.02,0,0-3.47,1.41-3.45,1.11.02-.3-1.59,1-1.59,1v1.92l-1.02.92.72,1.51,1,1.72,2.13.81-.3,1.59-4.15,2.53h-3.04l-2.23,2.19,2.43-1.18,3.34-.21,5.87-2.38,2.12-1.05.51-2.85,2.43-.3v1.59l3.95.51,2.64,1.41,2.12,3.18,1.43,5.37.3,7.58.6,4.56-2.93,4.94-1.59,6.68,1.32,4.35,1.83,2.23.81,4.55,1.11,3.85-.3,1.81,2.02,2.43-.81-3.18-.91-4.66-.21-3.18,1.51,1.21v2.23l1.59,2.83,2.53,5.67-.49,2.32,1.85,2.03h1.38l1.59,1.59,2.23,1.02,2.02-.51,2.13,2.43h2.74l1.81,3.18,2.74,2.62,2.02,1.11,1.42-1.42,1.02.41.72,1.43-.72,4.43-2.32,2.92.4,2.34-1.11,1.41.51,2.32h1.02l2.23,5.37,2.42,3.34,4.45,2.62.72,4.66.91,12.03-.7,4.26.7,3.34,1.42,3.73v4.96l1.83,3.64,3.04,2.83h4.45l-3.75-2.42-.49-2.54,1.51-3.43-1.59-2.32,1.42-1.92-.51-3.04,1.83-.6.51-2.34,2.74-.91.81-2.23-2.13-2.43,3.55.81,1.92-3.85,2.12-3.43v-1.91l1.59-2.13,1.92-.91,2.23-.51.81-2.53,1.11-3.18v-3.04l2.64-3.18.49-2.92-.81-1.92-2.02.21-2.53-1.73-3.55-.1-1.81-1.92-3.75-.6.81-1.59-1.21-2.94-2.94-1.59h-2.53l-2.69-2.8-2.13-1.59-1.83.6-1.42-.79-1.81.49-1.32-1.72-1.21,1.11-2.23-.21-2.13,2.1-1.72-.7-2.34.49-1.81-.81-.81-2.23.6-3.18-1.92-.21-2.32-.91,1.11-2.13,1-2.32-.6-1.32-1.59.81-1.02,1-1.92,1.43-3.04-.41-1.32-4.15.92-3.18,1.59-3.18,1.59-.92s2.23-.7,2.23-.4,1.59,1,1.59,1l1.21-1.21,1.83.21,1.59.3,1.42-.1.91,1.59-.4,1.59.8,1.72.41.91,1.21-1.81-.91-3.85,3.34-4.05,2.64-.91,2.32-4.55,2.23-1.73,2.02-.81.6-1.72,2.85-1.21.81,1.51,2.72-.91,1.73-1.59-2.43-1.72v-2.43l-.6-1.21,4.15-.3,3.44-.11c-.78.85-1.5,1.77-2.13,2.73,0,.3.51.81.51.81l3.85,1.32-.4-2.53h-1.92l1.42-2.43-.11-3.64-2.42-2.83-.81-4.05-.6-1.32-2.13,2.34-1.92-.72.1-3.18-2.23-2.53-2.62-.6-.91,3.43-1.32,1.59.7,1.81-.6,2.85-2.53.81-.3,2.11-1.42,1.59-1.32-1.32,1.02-3.74-2.23-.71-3.18-2.62-1.32.1-.19-4.66,2.83-3.67,4.77-1.59,1.92-2.72,1.42.54,2.23-.54,1.18-3.59-1.91-.95s-.48,1.7-.78,1.7l-1.97,1.48-.25-1.27.65-1.42-.75-.65-.97,1.59-.25-2.73.1-2.58-.8-1.37-1.78,1.21-.21,1.73.62,1.16-.16,1.67-1.97,1.3-.38-1.76-1.16-.09-.1.81-1.99-.51-2.02-1.06-.6-1.21-1.37.1-.72,2.29-.92-1.21-.81-.71-3.02-.6.86-.65-.21-1.16-1.16-.71-2.64-2.18-2.58-.4-2.59-2.23-3.04.3-1.18,1.16Z"/>
  <path class="cls-10" d="m83.84,340.94l-2.62,1.02-.81,2.37v1.48l1.72.4,2.88,1.27s1.92-.21,2.08-.26c.16-.05,1.07,1.67,1.07,1.67l1.59,2.57v1.37l-2.02,1.16-.35,1.22h-1.83l-1.3.7.45,1.02,1.97-.91.81,1.21,1.27,2.13,2.53,1.59h.6l-1.21-2.53.91.1.86,1.46,1.11-.95v-1.37l-1.59-2.18.86-1.02,1.18,1.22.56,1.3,1.42-1.16,1.07-1.81-1.22-.3-1.8-2.05-.4-.68.14-1.8-2.78-2.64-1.32-2.02-.65-2.02-1.92-.3-.81-.6-2.07.7-.41,2.18-.81-.4.51-2.03,1.46-1.11h-1.1Z"/>
  <path class="cls-10" d="m59.94,332.76l.21,1.97-1.59.25-1.11,1.51.41,1.92h1.46l3.18-1.51-.4.86-.86.65,1.26.81-1.3.35.19.56,2.94,1.11-.25.6-1.77-.91-1.4.41v.81l.94.56.7.75-.19.72.4.51,1.59.35h2.48l1.07-.6,1,1.21h1.48l1.11-.81.49-.95-1.26-1.11s-.6-.81-.46-.81c.21-.06.42-.14.6-.26l.16-2.73-1.21-1.06-.67.81v1.27l-.86-.56-.21-1.59-.81-.1-1.77-.32.16-1.05-.62-1.02-1.37-1.46-1,.35-.81-1.46-1.92-.03Z"/>
  <path class="cls-10" d="m68.6,328.93l-2-.6-1.29.8-2.16.27-.38.91,1.4.76,1.51-.24.81,1.15-.81.19v.6l1.42.76.68-.33.33.94h-.87l-.03.57.8.54,1.26.25,1.29-.64,1.64.64,1.1-1.07-.22-1.07-1.05-.45.29-1.22-1.22.22.05.84-.08.99-1.48-.06-.41-1.76-1.13-.94-.92.41-1.21-1.21.86-.68.73.87.8-.41.33-1.03Z"/>
  <path class="cls-10" d="m86.56,327.34l4.37-.29,2,1.05,2.24-.52,2.35.52,4.9,1.59.96.64-1.11.54-1.59.14-.73.73-2,.56-1.37.95h-3.75v.6l1.29.46-.35.76-1.7.45-.83.65h-1l.87.91-.49.68-1.99-.57-4.95-1.67-1.34.46.22,1.1,1.18.68,2.21.54,1.75-.32,1.43,1.24-.22.86-1.07.38-2.47-.62-2.62-.83-.94.49c-.42-.51-.81-1.04-1.18-1.59,0-.13.45-2.02.45-2.02l-1.26-.38-.64-1.37,1.59-.38.75,1.07,1.3.3,1.59-.22,1.4-.11-.27-.65,1.1-.38.68.95.99.8h.91v-.94l-.8.14-.6-.57.3-.64-1.67-.41.76-.87,1.67.56.37-.45-.91-1.48.57-.38,1.1.64.49.83.75.35v-.71l1.59-.33.86-.57v-.87h-.76l-1.02.73-1.75-.38-.95-.49-.8.14-1.02-.11-.3-.95v-.83l-.76-.27.21-.3Z"/>
  <path class="cls-10" d="m74.79,338.3l-.57,1.26h-.89l-.27,1.13.89.8c.07.43.17.85.32,1.26,0-.19,1.26-.68,1.26-.68,0,0,.84-.49.84-.6s-.35-1.59-.35-1.59l1.1-.33-.22-1.14-2.1-.08Z"/>
  <path class="cls-10" d="m77.57,339.81l-.24,1.13.65.84h.72l1.7-.6,1.34-1.18-2.2-.81-1.97.62Z"/>
  <path class="cls-10" d="m73.82,345.12l-1.54,1.13,2.31,1.1v-1.11l-.76-1.11Z"/>
  <path class="cls-10" d="m76.6,334.36v1.24l-.48,1.05,1.21.43.89-.56.27-1.27-.14-.89-.78-.43-.97.43Z"/>
  <path class="cls-10" d="m76.12,328.88l.6.48.17.49-.78-.11v.43l1.97.25.59,1.1.59.13.27-1.38-2-1.68-1.26-.25-.16.56Z"/>
  <path class="cls-10" d="m80.11,330.67l.46.6-.67.37.67.73c.61-.11,1.21-.27,1.8-.46-.08,0-.64-1.08-.64-1.08l-.99-.73-.64.57Z"/>
  <path class="cls-10" d="m84.68,327.21l1.59,2.32,1.21.89-.17.81-.6.68-1.42.46-.99.13-1.54-1.68,1.38-.22.24-.64-1.07.13-1.1-.24v-1.32l1.45-.03-.18-.86,1.19-.43Z"/>
  <path class="cls-10" d="m79.27,336.56l-.95.52.48.81s1.08.6,1.11.41c.03-.19.19-1.22.19-1.22l-.83-.52Z"/>
  <path class="cls-10" d="m71.52,338.61l-.72-1.16.94-.37.92.57-1.15.95Z"/>
  <path class="cls-10" d="m70.38,329.23l.43.87c.49-.01.98-.05,1.46-.13l1-1.8-1-.54-1.46.49-.43,1.1Z"/>
  <path class="cls-10" d="m79.91,353.4c-.17.11-2.04,2.76-2.04,2.76l.62.27v.83l1.05-.6.86-.8.51.41.64.68,1.18-.11-.99-1.51v-.68l-1.83-1.25Z"/>
  <path class="cls-10" d="m86.49,352.1l.16-1.11,1.11-.29.56.54-.48.68-.81.45-.54-.27Z"/>
  <path class="cls-10" d="m101.14,333.93l-1.75.65-2.39.14-1.3.43.35.71.95.91h1.42l.7.46h-1.32l-.95.21-1.29-.37.49.76.95.46,1.1.03-.27.27h-1.4l-.22.59.56.21.57,1.03h1l1.35-.43,1.18.49,1.18.99.3,1.94.73.46.53,1.76v1.27l-.6.6-.08,1.07.68.19.49-1.11.68,1.11.22,1.18.3,1.4-.79,1.32-1.13,1.33-.84,2.13.16,2.11.25,2.43.43,1.89,1.24,1.72h1.26l.57,1.13,1.34.38v-.72l1.43-2.27,1.45-2.54.72-1.48,1.83-.38,1.89-.38,1.53-1.78,1.07-.92h1.81l2.24-.64,2.13-1.72-1.61-.3-1.62-.6.75-.71,1.64-.37.38,1.05,1.67.33v-1.18l-.41-1.18-1.83-.71-.96-1.48,1.22.41.19-1.1,1.37.68,1.51.19.38-.67-1.26-.62.88-.84.84-1.02-.19-.92-1.11-.94.76-.49,1.78.71v-1.14l-.41.05-.45.19-.73-.54.27-.6.68.27v-.51l-.8-.51.08-1.24.94-.86h.84l-.38-1.26,1.67-.52.8-.71,1.15-.33-.68-.62-2.13-.11-.38.73-1.67-.7-.76,1.25-1.48.76.73-1.53,1.02-.68-.88-.87-.49.19-.19.84-1.37.27-.79.46-.05-.44.92-.57.13-.62-1.73.46-1.89.25-.53.37-.11-.46,1.1-.51-.18-1.07,2.16.59,2.91-.4-.99-.45.11-.86-.97-.56-4.36-.43-.96-.33-.56.46-.84-.13-.56.24.48.87-2.15-.64v-.72l-1.18.24-.57.81,1.11.35.27.37-1.18.16-.03.78-.7-.26-.72-.97-.83-.1-.71-.68-.8.41.49,1.1-1.35-.54-.83.38-.57-1.38-2.7-.08-1.53.32-.27,1.08-1.18-.06-1.07.06-1.16.51.3.67,1.53.19Z"/>
  <path class="cls-10" d="m131.94,372.74l1.73-.46.46.92-.38,2.16-.99,1.13-1.64.19-.91-.41,1.15-1.78-.84-.76.65-.52.76.49v-.95Z"/>
  <path class="cls-10" d="m199.25,328.31l.61.62.17,1.54.4.21.41-.65,1.34-.54v-.87l-1.26-.59h-1.57l-.1.29Z"/>
  <path class="cls-10" d="m194.84,327.46l-1.62.94-.43,1.24.52.35,3.85-.13,1.67-.33-.4-1.84-.91-.22-1.07.76-.26-.89-1.37.13Z"/>
  <path class="cls-10" d="m226.62,324.98l.73.95-1.72-.24-.75.68v1.33l2.19.95.72-1.11.95-.73v-1.43l1.15.99,1.54-.64,2.54-.08,1.26-1.33-1.13-.33-1.23.52-2.05-.11-1.51.05-1.14.49-.99-.19-.57.22Z"/>
  <path class="cls-10" d="m229.28,329.99l.78-1.32,1.65.49v.56l-2.43.27Z"/>
  <path class="cls-10" d="m270.67,331.74l-.73-.48,1.26-.25.17-1.84-1.21-.62h-2.31l-.95.16-.81-.64-1.97-.17-3.09-.84-.73-.92-1.8.32-3.29.84-1.03-.24-1.08.71.48.76.78.4.25,1.07-.38.17-1.72-.32-.91-.68-.16.52-2.32.73-1.14.59-.26.76-1.81-.94v-1.22l-1.75-.27-1.37.3-1.59,1.19-.32.68-2.13-.54h-1.59l.32-.67-.99-.43-1.03.32.1,1.13-.27.81-.71-.4-.27-1.27-2.56.16-1.67.57-.35,1.14h.73l.1.94v.94h-1.38l-1.19-.13v.59l.41.43-.76-.13-.84.14-.92-.87-.25.83.65.91-.22.51-1.32-.32-2.94-1.07h-.96l.27-.38.67-.51.53-.86-.99-.46-1.61.35-1.59-.32-.25.68-.3.68.99.38-.24.14-1.08.3-1.85.64-.25-.65-1.07.13-1.83.6-.95-.38-.76.27-1.26.11-.21.7.13.41-.78.32-1.02.71-.48.64-.68.25.83-1.59,1.93-1.99,1.27-.97-.16-1.42-.99-.51,1.1-.22-.32-.89-1.81-.6-1.29.52-1.97.56-.84.16-.83-.17-.33-1.4-.59-.29-.41,1.11-.32,1.1.7.65.68-.25-.19.56h-1.24l-1.07.38,1.03.91-1.75.3-.64-.45-2.7,2.05-1.21.35-.43.92-.72.56.3,1.03.89.72-.68,1.26-.3-1.13-.76.52-1.72.52-.68.56.35.94.57.78,1.94.41.68,1.48v.84l.83,1.1-.52.38-1.07-1.18-.24-1.78-1.73-.65-1.59-.79-.68.3.46,1.1-1.18-.3-1-.99-.33.3.3.46-.57.94-.11,1.06.99,1.03v.87l.38.49v.72l.49.46,1.37-.62,1.37.84.41,1.07,1.59.71-.65.22-1.32-.49-.73-1.37-.83-.45-.73.83.43,1.26-.43,1.02-.56,1.07-2.4.13.65-.65.53.11.73-.65.33-1.59v-.95l-1.21-1.32-.57-2.16-.99-.54.35-1.8-1.18-.45-1.34-.11-.19,1.48.3,1.13-1.07.38-.19.6.73.54-.22.72.14.9h.84l.94.95.35,1.24-1.59-1.13h-1.18l-1.29-.79-.6.22h-1.42l-2.59-.92-1.94-1.33.24-2,1.07-2.58,2.23-2.03,1.91-1.29.94-.41.13-1.59-1.18.19-.27.8-2.66,1.07-1.86,1.24-.54.95-.64.08v.46l.3.33-.57,1.18-.65,1.59.16,1.32-1.15.41.43,1.18h1.21l.41.52h1.59l3.18,1.13.38,1.26-.84-.08-1.4.24-1.59,1.02-.8.3.65-1.81-.73.33-.52.91-2.02.76-.71,1.29v.94l-1.26-.24-.76-.6.57-.71.54.33-.35-1.07h-2.05l.19.98.76,1.26.19.83.19.76-1.42-.76h-.37l-.35.68-.83.68.72.95-1.15.52-1.1-.63-.76.11,1.15.94.41.57-1.18.35-1.59-.95-.3-1.59-1.18-.76-1.18-1.21,1.07.22,1.32.57,2.51.6,1.4-.63.19-1.18-1.1-1.18-2.98-1.37-1.59.14-.91-.88-1.03.49-2.43-1.59-2.12.6-.46,1.05-.6-1.02-.76.16-.76,1.1-1.48.41-1.07,1.29-.99,2.13-1.21,2.69-4.55,3.66-.54,2.72.6,2.81,1.59.52,2.5-2.11.46,2.11,1.21,2.35-1.4,1.03-.83-3.45-.92.68.16,1.02-1.03.6.24,1.42.64,1.05-1.59.54-1.59,1.21-.57,1.59-3.04,2.35-1.21-.91,2.16-1.21.16-1.59-1.26-1.32-2.13-2.96.84-1.48-1.23-1.11.43-.99-1.59.46-.88,1.07v1.59l.79,1.59,1.15.24-.24,1.78-.64.8-.73,1.21,1.59.38-1.34.65.19.57,1.48-.16.65.87.27.76-.43.33-1.35-.26-.35.75.6.46,1.26.6,1.15,1.59v.7l-.84,1.97h-3.47l-1.21-.46-1.26.65v2l-.3,2.24v1.86l.41.6,1.26-.22,1.13.83-.33,1.37-1.03,1.07-1.89,1.29-.3,2.13v1.1l-1.59.95-1.26.25-.53,1.11-.99.87v1.05l-.99.8-.41,1.26-.88.94.22.91.72.38-.41.73.49,1.32-.3.98-.08,1.18-.83.6.45.92.16,1.51,1.02.49,1.83,2.65.68,1.72h1.07l3.18,2.57h1.05l1.83-1.02,1.43.19,1.59.41,1.59-.84,3.29-.83,1.23,1.1.52.71,2.24-.14,1.07.68.3,1.26-.99,3.18.14,1.29,1.78,1.41.73,1.48.76.68.45,1.75-.33,1.02.91,1.67-.27,1.07-1.43,2.08-.38,2.32.11,1.59.99.94.19,1.07.52.8.54,2.85.49,1.72v1.24l.83.87.57,2.1.87.75v.87l-.35.49.35.92v.6l1.86.91.91-.6,1.59-.24,2.77-.22,1.7-1.32,1.97-1.75.99-1.78,1.07-.87.19-2.21,2.05-1.07.65-2-.49-2.24,1.13-1.7,1.72-1.48,1.73-.54,1.07-1.26-.3-.67.3-1.49v-2.03l-1.02-2.02.14-1.67-.37-.91.75-1.59,1.15-2.16.8-.19.6-1.13,4.52-4.13,1.59-2.29v-1.21l.99-1.75.27-1.78-.49-.41-1.59.64h-1.29l-.49.52h-.91l-.95.49-.99-.3-.65-1.13.35-.65-.79-.71-2.74-1.97-.91-2.21-1.15-.79-.6-3.04-1.59-1.86.41-.45s-1.75-1.8-1.86-1.8-.38-.94-.38-.94l-.76-.57-.83-2.08.46-.43.64,1.22.46,1.02.6.8v-1.59l.27-.53.19,1.43.79.54.8,1.48.79.68.32.79,1.1.49.57,2.69.14.46,1.26.38,1.94,3.53-.11,1.02.56.92v.52l.6.76h.91l1.07-.6,2.62-.84.64-.68,2.16-.33.65-1.21,1.89-.46v-.84l1.03-.14v-.76l.83-.33.27-1.29h.6v-.68l.68-.52v-1.33l-1.59-1.24-1.42-.13-.64-2.3-.91,1.1-.57,1.29c-.71.18-1.43.3-2.16.38-.11-.08-1.67-2.08-1.67-2.08l-1.59-2.27-.75-1.07,1.24-.87.76.27.91,1.73c.11.22.22.44.35.65,0-.11.64-.38.64-.38l1.59,1.18.91-.19,1.37-.57.49.62.27.64s1.86.65,1.97.65l3.04-.27,2.74-.22.53.75.95.46.3.41h.68v.6l1.4.16-.88.87.88.64.46.71,1.29-.22.76-1.59.19,1.22-.3,1.81,2.42,5.01.46.6.46,2.05.83.87.27.79v.62l1.07,1.37.8-.32v-.83l1.59-1.37-.41-.99.41-1.34-.19-1.21.19-2.51,1.13-.25.76-1.22,1.59-1.89,1.48-1.29-.22-.68.88-.95.99.65,1.59-.6.91.56v.92l1.72,1.59.88,1.07v1.59l.41.71,1.37-.91.19-.84.68.92.45,2.16.79,1.24.19.38-.41.54.41.91v3.48l.84.27,1.37,2.05v1.51l.53,1.59,1.45,1.14.95.6.41-.38-.76-1.92v-1.72l-1.18-1.24-1.42-1.59-1.02-2.05-.11-1.37.25-1.37-.25-1.05.49-.73.41.46.19.83s.84.19.84,0,.99.73.99.73l.22.99.79.33.57.65v1.05l.49.51,1.18-.95.27-.91,1.13-.38.88-.65v-1.86l-.33-2.19-1.59-1.59-.72-.27-.54-.99-.88-1.14.11-1.37.84-.49.49-1.1,1.45-.33.33.8.11,1.37-.45.71.45,1.03.95.25.49-1.4-.52-.6-.46-1.07.72-1.14,3.61-1.43,1.59-1.59,1.37-2.85v-1.41l.79-1.18v-1.86h-1.14l.54-1.4-1.03-1.26-.8-.49s-1.59-1.59-1.59-1.83c-.07-.46-.11-.93-.11-1.4l.91-1.26.96-.25.11-.87-1.23.19-.72-.3-.38.91-1.59-.16-.46-.68-.84-1.05.35-.57.76.33.19-.68.44-.41.65-1.14.91-.3-.11.73-.22.79.6.75.64-.75,1.26-.38.99.19v.76l.13,1.05,1.05.46.81.33v.6l.19,1.07.22,1.13.57.54,1.32-.57.65-1.26v-1.59l-1.83-1.75-1.1-.98-.11-.87.83-.91v-.95l.17-1.18.46-.41-.3-.38.33-.68.68.68,1.5-.38.83-2.27.27-2.54v-1.03l.68-2.19-1.48-4.1v-1.59l-.88-.6-.38-1.1-1.59-1.18h-1.07l.22.84-.72.19-1.42-.95-1.24.16.83-1.26.54-1.4.56-1.94.49-3.77,1.59-.75h2.02l1.1-.41.3-1.07h1.4l.99.8,1.69-.8.99-.79-1.22-.19v-1.59l.11-1.89s1.83-2.13,1.83-2.02.46,1.72.46,1.72l1.13.8.46-.68v-1.18h.65v-.8l-.64-.52.37-.89,1.3-.14-.62.8.45,1.32.17,1.16-.92.67-.16,3.18-1.03,2.42-.56.24.78,1.07-.35.86.3,1.38,2.35,3.18,1.93,3.08.6.67.1-1.35.25-.99-.7-1.37.3-.7-.13-1.29.76-.14.35-.57-.78-2.15v-.86l.68.75.32-.35-.57-.89c-.15-.09-.3-.17-.46-.24-.24-.29-.45-.6-.65-.92l-.37-.78-.62.46-.32-.64v-1.16l-.72-2.29.73-.4.73.57.3-1.78.43-.32.26,1.59.51-.73.16-.83,1.11-.24,1.13.67v-.76l1.7-4.55,1.19-1.22,1.07.25v-1l-1.37-.41-.64-.27-.97-1.49h-1.48l1.69-1.07.11-1.59-.8-1.11.41-.91.38,1.08.88.64,1.03-.65.92.81.91.56.25-.84.64.78h1.37l.19-.27-.99-1.37Zm-112.01,34.97l-1.94.11-.91.62.19.68.72.11v1.92l-.72.08-.49-1.29-1.15,1.4.46,1.72-.57.68-.99.52-.46-.94-1.26.6-1.73,1.1-.73-.27-1.21-.25.57-.92,1.1-.64,1.21-.79.79-.92-.3-2.16,1.26-1.13-.11-1.11-1.45-.83v-2.02c.49-.45,1.02-.86,1.59-1.21.13,0,1.03-.95,1.03-.95l.19-1.78,1.07-.87h1.07l.18.3v1.11l-1.78,2-.3.79.3,1.67.25,1.59,1.42.52,1.7-.87,1.26-.27,1.81.87-2.07.81Z"/>
  <path class="cls-10" d="m183.21,438.72l-1.97,2.37-1.37,1.37-1.61.3-.41,1.22.35,2.67-1.16,1.13v2.46l.86,1.18h1.57l1.02-2.08,2.37-5.26-.26-1.11,1.02-.7v-1.67l-.41-1.88Z"/>
  <path class="cls-10" d="m223.57,421.52h1.51l3.2,3.48,1.32.97,1.65,2.02,1.02,1.62.76.6-.25,1.57-.05,1.57-1.53-.57-1.61-1.51-2.13-4.29-.86-1.62-1.02-.87-1.62-2.07-.4-.91Z"/>
  <path class="cls-10" d="m233.38,433.97l-.65.95,3.04.81,4.55,1.21.41-.75-1.07-.41-.72-1.11-1.56-.35-1.67.35-1.23-.7h-1.11Z"/>
  <path class="cls-10" d="m242.85,419.85l-1.11,2.02-1,.3-.86,1.67-1.53.86v1.22l-1.62.24-.75.67.45,1.07.97,2.48h1.21l2.13.51.6,1.21.81-.91.95-2.23v-1.07l1.16-1.02.76-.3-1.11-1.27-.3-2.62.65-.1.76-.81-2.18-1.92Z"/>
  <path class="cls-10" d="m250.85,425.97l-1.37.65-2.32-.65-1.32,1.46-.3,1.59-.51,1.32.3,1.16-.1,1.88c.51.49.75.19.75.19l.81-1.81-.24-1.67.79,1.3.11,1.48,1,.25.67-1.02-.72-2.29-1.93-1.46.62-1.26h3.09l.65-1.13Z"/>
  <path class="cls-10" d="m245.03,406.95l-.26,3.5,1.21,1.59,1.07,2.02.89,1.97v1.46l.94,2.43,2.53,1.08v-1.08l.56-.46-.3-2.02-1.06-1.59-.1-1.91-1.59-1.78s-1.67-.76-1.83-.81c-.22-.47-.39-.96-.49-1.46v-2.94h-1.56Z"/>
  <path class="cls-10" d="m256.02,428.45l1.72,1.56-1.16.62.6.75.25,1.07.95-.35,2.18.95,1.93,1.18v2.72l1.83,1.73,2.16-.37-.49-.86,1.67-.51.6-.35,1.07,1.37v1.02l.7,1.37,2.13.6.95-.97-1.86-1.51-.76-1.53-.6-1.48,1.46-.33,2.27.09,1.37-1.86-.95-.36-.76,1.22-2.07.48-2.23-.73-.62-1.37-3.23-1.37-3.24-2.23-1.02,1.3-1.21.87-.97-1.38.06-1.7h-1.27l-1.46.35Z"/>
  <path class="cls-10" d="m237.28,452.12l-.56,3.18-.35,2.32v3.5l.35,1.21-1.07,1.88-.95.81.7.95,1.32.3,2.64-.86,2.83.41.91-1.27,2.69-.65.65.56,1.49-.76,1.89-.1,1.59,1.37.3,1.76v1.32l.56.6.6-.95,1.97-1.59-.35,1.07-.96,1.06-1.37,1.42.3.51.95-.26.46-.97.95-.95-.45,1.59.14.35v1.37l-.41.97.65,1.06,1.73.86,1.59-.21.65,1.27,1.59-1.06.65-.41h1.42l1.59-2.42.51-1.02,2.78-2.57,2.69-5.01.45-2.27v-2.69l-1-1.83-.11-1.3-.61-.92-.35-1.97-1.48-1.59.21-1.59c-.01-.58-.1-1.16-.25-1.72,0-.62.06-1.23.21-1.83l-1.21-.56v-3.64l-.76-.51-.56,1.06-1.02,2.99-.76,3.04-.56.95h-.91l-1.21-1.41-1.78-2.02.72-1.67,1.11-1.32-.6-.7-.86.4-1.83-.86-2.32.51s-.97,1.59-1.02,1.46c-.05-.13-.65.86-.65.86l.35.97-1.88.56.51-1.11-.81-1.43-1.26.87-1.59,1.3v.92l-.81-.16-.14,1.46-.37-1-.19-.6-.92.86.16,1.41-.76.7-1.32.76h-1.72l-2.67,1.16-2.13,1.81Z"/>
  <path class="cls-10" d="m256.32,476.85l1.16.87,2.23-.45-.81,1.3-.65,1.51-1.42,1.02-.51-.46-.51-1.11.61-.56.11-1.16-.21-.97Z"/>
  <path class="cls-10" d="m252.98,373.16l.7,1.97-.7,1.13-.51.86,1.41,1.16.6,1.97v3.38l-1.42.91-.3,1.48-2.02.51-.76.75-.81,1.22.51.75-.86.41.35,1.26.91,1.27.86-.72-.1-1.46,1.37-.7,2.83-1.57,1.92-1.83-.65-3.48.14-1.22-1.46-1.92-.05-1.11-1.11-.65.35-.81,1.83.81.05-.51-.51-.9,1.83-.46v-2.18l-.6.16-.76.81-1.02-.3-1.16-.97h-.86Z"/>
  <path class="cls-10" d="m247.72,359.9v.97l.4.56.25,1.16,1.16,1.92.51.76v1.26l.86,1.37,1.07,1.52.21,1.42.94,1.41.22-1.21-1.02-1.97-.86-2.18,1.32.56-1.11-1.62-1.76-2.48-.6-1.62-.92-.95-.35-.87h-.3Z"/>
  <path class="cls-8" d="m92.99,438.36c0,3.27-5.93,9.32-5.93,9.32,0,0-5.93-6.06-5.93-9.32,0-1.57.62-3.08,1.74-4.19,1.11-1.11,2.62-1.73,4.19-1.73s3.08.62,4.19,1.73c1.11,1.11,1.74,2.62,1.74,4.19Z"/>
  <path class="cls-9" d="m87.06,442.65c2.24,0,4.06-1.82,4.06-4.05s-1.82-4.06-4.06-4.06-4.06,1.82-4.06,4.06,1.82,4.05,4.06,4.05Z"/>
  <path class="cls-11" d="m85.7,439.29l.7-.08c.02.18.08.31.18.41.1.09.21.14.35.14.15,0,.27-.06.37-.17.1-.11.15-.26.15-.45,0-.18-.05-.32-.15-.43-.1-.11-.22-.16-.36-.16-.09,0-.2.02-.33.05l.08-.58c.19,0,.34-.04.45-.12.1-.09.15-.21.15-.36,0-.13-.04-.23-.11-.3-.08-.08-.17-.11-.3-.11s-.23.04-.31.13c-.09.08-.14.21-.16.37l-.66-.11c.05-.23.12-.41.21-.54.09-.14.22-.24.39-.32.17-.08.35-.12.56-.12.35,0,.64.11.85.34.18.18.26.39.26.62,0,.33-.18.59-.54.79.21.05.39.15.51.31.13.16.19.35.19.58,0,.33-.12.61-.36.84-.24.23-.54.35-.9.35-.34,0-.62-.1-.84-.29-.22-.2-.35-.45-.39-.77Z"/>
  <path class="cls-8" d="m210.01,396.12c0,3.27-5.93,9.32-5.93,9.32,0,0-5.93-6.06-5.93-9.32,0-1.57.62-3.08,1.74-4.19,1.11-1.11,2.62-1.73,4.19-1.73s3.08.62,4.19,1.73c1.11,1.11,1.74,2.62,1.74,4.19Z"/>
  <path class="cls-9" d="m204.08,400.4c2.24,0,4.06-1.82,4.06-4.05s-1.82-4.05-4.06-4.05-4.06,1.82-4.06,4.05,1.82,4.05,4.06,4.05Z"/>
  <path class="cls-11" d="m204.58,398.04h-.72v-2.7c-.26.24-.57.43-.93.54v-.65c.19-.06.39-.18.61-.35.22-.17.37-.37.45-.6h.58v3.76Z"/>
  <path class="cls-8" d="m250.18,449.25c0,3.27-5.93,9.32-5.93,9.32,0,0-5.93-6.06-5.93-9.32,0-1.57.62-3.08,1.74-4.19,1.11-1.11,2.62-1.73,4.19-1.73s3.08.62,4.19,1.73c1.11,1.11,1.74,2.62,1.74,4.19Z"/>
  <path class="cls-9" d="m244.25,453.53c2.24,0,4.06-1.82,4.06-4.05s-1.82-4.06-4.06-4.06-4.06,1.82-4.06,4.06,1.82,4.05,4.06,4.05Z"/>
  <path class="cls-11" d="m245.34,450.51v.67h-2.52c.03-.25.11-.49.25-.71.14-.23.41-.53.81-.9.32-.3.52-.51.6-.61.1-.15.15-.29.15-.44,0-.16-.04-.28-.13-.37-.09-.09-.2-.13-.35-.13s-.27.05-.36.14c-.09.09-.14.24-.15.45l-.72-.07c.04-.39.18-.68.4-.85.23-.17.51-.26.84-.26.37,0,.66.1.87.3.21.2.32.45.32.74,0,.17-.03.33-.09.48-.06.15-.15.31-.29.48-.09.11-.24.27-.47.48-.23.21-.37.35-.43.41-.06.07-.11.13-.15.2h1.43Z"/>
  <path class="cls-8" d="m40.16,335.15c0,3.26-5.93,9.32-5.93,9.32,0,0-5.93-6.06-5.93-9.32,0-1.57.62-3.08,1.74-4.19,1.11-1.11,2.62-1.73,4.19-1.73s3.08.62,4.19,1.73c1.11,1.11,1.74,2.62,1.74,4.19Z"/>
  <path class="cls-9" d="m34.23,339.43c2.24,0,4.06-1.82,4.06-4.05s-1.82-4.05-4.06-4.05-4.06,1.82-4.06,4.05,1.82,4.05,4.06,4.05Z"/>
  <path class="cls-11" d="m34.3,337.07v-.75h-1.54v-.63l1.63-2.38h.6v2.37h.47v.63h-.47v.75h-.7Zm0-1.38v-1.28l-.86,1.28h.86Z"/>
  <path class="cls-6" d="m17.88,291v-8.59h1.14v7.58h4.23v1.01h-5.37Zm6.2-3.11c0-1.15.32-2.01.96-2.56.54-.46,1.19-.69,1.96-.69.86,0,1.55.28,2.1.84.54.56.81,1.33.81,2.32,0,.8-.12,1.43-.36,1.89-.24.46-.59.81-1.05,1.07-.46.25-.96.38-1.5.38-.87,0-1.58-.28-2.12-.84-.54-.56-.8-1.36-.8-2.41Zm1.08,0c0,.8.17,1.39.52,1.79.35.39.79.59,1.31.59s.96-.2,1.31-.6c.35-.4.52-1.01.52-1.82,0-.77-.18-1.35-.53-1.75-.35-.4-.78-.6-1.3-.6s-.96.2-1.31.59c-.35.39-.52.99-.52,1.79Zm10.05.83l1.04.13c-.11.71-.4,1.28-.87,1.68-.46.4-1.04.6-1.72.6-.85,0-1.54-.28-2.06-.83-.52-.56-.77-1.36-.77-2.4,0-.67.11-1.26.33-1.76.22-.5.56-.88,1.01-1.13.46-.25.95-.38,1.49-.38.68,0,1.23.17,1.66.52.43.34.71.82.83,1.45l-1.03.16c-.1-.42-.27-.73-.52-.94-.25-.21-.55-.32-.9-.32-.53,0-.96.19-1.29.57-.33.38-.5.98-.5,1.8s.16,1.44.48,1.82c.32.38.74.57,1.25.57.41,0,.76-.13,1.04-.38.28-.25.45-.65.53-1.17Zm6,1.51c-.39.33-.77.57-1.13.7-.36.14-.75.2-1.16.2-.68,0-1.21-.17-1.58-.5-.37-.34-.55-.76-.55-1.28,0-.3.07-.58.21-.83.14-.25.32-.46.54-.61.23-.15.48-.27.76-.35.21-.05.52-.11.94-.16.85-.1,1.48-.22,1.88-.36,0-.14,0-.24,0-.28,0-.43-.1-.73-.3-.91-.27-.24-.67-.36-1.2-.36-.5,0-.86.09-1.1.26-.23.17-.41.48-.52.92l-1.03-.14c.09-.44.25-.8.46-1.07.21-.27.53-.48.93-.63.41-.15.88-.22,1.41-.22s.96.06,1.29.19c.33.12.58.28.73.48.16.19.27.43.33.71.04.18.05.5.05.97v1.41c0,.98.02,1.6.06,1.86.05.26.14.51.27.74h-1.1c-.11-.22-.18-.48-.21-.77Zm-.09-2.35c-.38.16-.96.29-1.72.4-.43.06-.74.13-.92.21s-.32.19-.42.35c-.1.15-.15.31-.15.5,0,.28.11.52.32.7.21.19.53.28.94.28s.77-.09,1.08-.26c.32-.18.55-.42.7-.73.11-.24.17-.59.17-1.05v-.39Zm5.01,2.18l.15.93c-.3.06-.56.09-.8.09-.38,0-.68-.06-.89-.18-.21-.12-.36-.28-.45-.47-.09-.2-.13-.61-.13-1.25v-3.58h-.77v-.82h.77v-1.54l1.05-.63v2.17h1.06v.82h-1.06v3.64c0,.3.02.49.05.58.04.09.1.15.18.2.09.05.21.08.36.08.12,0,.27-.01.46-.04Zm1.04-6.43v-1.21h1.05v1.21h-1.05Zm0,7.38v-6.22h1.05v6.22h-1.05Zm2.27-3.11c0-1.15.32-2.01.96-2.56.54-.46,1.19-.69,1.96-.69.86,0,1.55.28,2.1.84.54.56.81,1.33.81,2.32,0,.8-.12,1.43-.36,1.89-.24.46-.59.81-1.05,1.07-.46.25-.96.38-1.5.38-.87,0-1.58-.28-2.12-.84-.54-.56-.8-1.36-.8-2.41Zm1.08,0c0,.8.17,1.39.52,1.79.35.39.79.59,1.31.59s.96-.2,1.31-.6c.35-.4.52-1.01.52-1.82,0-.77-.18-1.35-.53-1.75-.35-.4-.78-.6-1.3-.6s-.96.2-1.31.59c-.35.39-.52.99-.52,1.79Zm5.99,3.11v-6.22h.95v.88c.46-.68,1.12-1.02,1.98-1.02.38,0,.72.07,1.03.21.32.13.55.31.71.53.16.22.27.48.33.78.04.2.06.54.06,1.03v3.83h-1.05v-3.79c0-.43-.04-.75-.12-.96-.08-.21-.23-.39-.44-.51-.21-.13-.45-.19-.73-.19-.45,0-.84.14-1.17.43-.32.29-.49.83-.49,1.62v3.4h-1.05Zm6.97-5.02v-1.2h1.2v1.2h-1.2Zm0,5.02v-1.2h1.2v1.2h-1.2Z"/>
  <rect class="cls-7" width="606" height="243" rx="6" ry="6"/>
  <rect class="cls-3" x=".5" y=".5" width="605" height="242" rx="5.5" ry="5.5"/>
  <circle class="cls-8" cx="18.5" cy="18.5" r="3.5"/>
  <circle class="cls-10" cx="28.5" cy="18.5" r="3.5"/>
  <circle class="cls-6" cx="38.5" cy="18.5" r="3.5"/>
  <path class="cls-8" d="m181,114c0,14.83-4.4,29.33-12.64,41.67-8.24,12.33-19.95,21.95-33.66,27.62-13.7,5.68-28.78,7.16-43.33,4.27-14.55-2.89-27.91-10.04-38.4-20.53s-17.63-23.85-20.53-38.4c-2.89-14.55-1.41-29.63,4.27-43.33,5.68-13.7,15.29-25.42,27.62-33.66,12.33-8.24,26.83-12.64,41.67-12.64v18.75c-11.13,0-22,3.3-31.25,9.48-9.25,6.18-16.46,14.97-20.72,25.24-4.26,10.28-5.37,21.59-3.2,32.5,2.17,10.91,7.53,20.93,15.39,28.8,7.87,7.87,17.89,13.22,28.8,15.39,10.91,2.17,22.22,1.06,32.5-3.2,10.28-4.26,19.06-11.47,25.24-20.72s9.48-20.13,9.48-31.25h18.75Z"/>
  <path class="cls-4" d="m106,39c9.85,0,19.6,1.94,28.7,5.71,9.1,3.77,17.37,9.29,24.33,16.26,6.96,6.96,12.49,15.23,16.26,24.33,3.77,9.1,5.71,18.85,5.71,28.7h-18.75c0-7.39-1.46-14.7-4.28-21.53-2.83-6.82-6.97-13.03-12.19-18.25-5.22-5.22-11.42-9.37-18.25-12.19-6.83-2.83-14.14-4.28-21.53-4.28v-18.75Z"/>
  <path class="cls-6" d="m93.57,108.54v-1.01h5.56v.82c-.55.58-1.09,1.35-1.63,2.32-.54.96-.95,1.96-1.24,2.98-.21.72-.35,1.51-.4,2.36h-1.08c.01-.68.14-1.49.4-2.45s.62-1.88,1.09-2.77c.48-.89.98-1.64,1.52-2.25h-4.21Zm6.61,5.21l1.11-.09c.08.54.27.95.57,1.22.3.27.66.4,1.08.4.51,0,.94-.19,1.29-.57.35-.38.53-.89.53-1.52s-.17-1.08-.51-1.42c-.34-.35-.78-.52-1.32-.52-.34,0-.65.08-.92.24-.27.15-.49.35-.64.6l-.99-.13.83-4.41h4.27v1.01h-3.43l-.46,2.31c.52-.36,1.06-.54,1.62-.54.75,0,1.38.26,1.9.78.51.52.77,1.19.77,2s-.23,1.45-.68,2.02c-.55.7-1.3,1.04-2.25,1.04-.78,0-1.42-.22-1.92-.66-.49-.44-.77-1.02-.84-1.74Zm6.88-4.28c0-.61.15-1.14.46-1.57.31-.43.76-.64,1.34-.64.54,0,.99.19,1.34.58.36.38.53.95.53,1.69s-.18,1.29-.54,1.68c-.36.39-.79.59-1.32.59s-.95-.19-1.3-.58c-.34-.39-.51-.97-.51-1.75Zm1.83-1.48c-.26,0-.48.11-.66.34-.17.23-.26.64-.26,1.25,0,.55.09.94.26,1.17.18.22.39.33.65.33s.48-.11.66-.34c.18-.23.26-.64.26-1.24,0-.56-.09-.94-.26-1.17-.18-.23-.39-.34-.66-.34Zm0,8.33l4.7-9.05h.85l-4.68,9.05h-.87Zm3.71-2.33c0-.62.15-1.14.46-1.56.31-.43.76-.64,1.35-.64.54,0,.98.19,1.34.58.35.38.53.95.53,1.69s-.18,1.29-.54,1.68c-.36.39-.8.59-1.32.59s-.95-.19-1.3-.58c-.34-.39-.52-.97-.52-1.75Zm1.84-1.48c-.26,0-.49.11-.66.34-.17.23-.26.64-.26,1.25,0,.55.09.93.26,1.16.18.23.39.34.65.34.27,0,.49-.11.66-.34.18-.23.26-.64.26-1.24,0-.56-.09-.94-.26-1.17-.18-.23-.39-.34-.66-.34Z"/>
  <path class="cls-8" d="m378,114c0,17.86-6.37,35.13-17.97,48.71-11.6,13.58-27.66,22.57-45.3,25.37-17.64,2.79-35.69-.8-50.92-10.13-15.23-9.33-26.62-23.79-32.14-40.77l17.83-5.79c4.14,12.74,12.69,23.58,24.11,30.58,11.42,7,24.96,9.69,38.19,7.6,13.23-2.1,25.28-8.84,33.97-19.03,8.7-10.18,13.48-23.14,13.48-36.53h18.75Z"/>
  <path class="cls-10" d="m231.67,137.17c-3.35-10.31-4.42-21.22-3.15-31.99,1.28-10.77,4.87-21.13,10.53-30.37,5.66-9.24,13.26-17.15,22.28-23.17,9.01-6.02,19.23-10.02,29.93-11.72,10.71-1.7,21.65-1.05,32.09,1.89,10.43,2.94,20.11,8.11,28.35,15.15,8.24,7.04,14.86,15.78,19.4,25.62,4.54,9.84,6.89,20.55,6.9,31.39h-18.75c0-8.12-1.77-16.16-5.17-23.54-3.41-7.38-8.37-13.94-14.55-19.22-6.18-5.28-13.44-9.15-21.26-11.36-7.82-2.21-16.04-2.69-24.07-1.42-8.03,1.27-15.69,4.27-22.45,8.79-6.76,4.52-12.46,10.45-16.71,17.38-4.25,6.93-6.94,14.7-7.9,22.78-.96,8.07-.15,16.26,2.36,23.99l-17.83,5.79Z"/>
  <path class="cls-6" d="m294.88,118v-2.06h-3.73v-.97l3.92-5.57h.86v5.57h1.16v.97h-1.16v2.06h-1.05Zm0-3.02v-3.87l-2.69,3.87h2.69Zm3.3.77l1.11-.09c.08.54.27.95.57,1.22.3.27.66.4,1.08.4.51,0,.94-.19,1.29-.57.35-.38.53-.89.53-1.52s-.17-1.08-.51-1.42c-.34-.35-.78-.52-1.32-.52-.34,0-.65.08-.92.24-.27.15-.49.35-.64.6l-.99-.13.83-4.41h4.27v1.01h-3.43l-.46,2.31c.52-.36,1.06-.54,1.62-.54.75,0,1.38.26,1.9.78.51.52.77,1.19.77,2s-.23,1.45-.68,2.02c-.55.7-1.3,1.04-2.26,1.04-.78,0-1.42-.22-1.92-.66-.49-.44-.77-1.02-.84-1.74Zm6.88-4.28c0-.61.15-1.14.46-1.57.31-.43.76-.64,1.34-.64.54,0,.99.19,1.34.58.36.38.53.95.53,1.69s-.18,1.29-.54,1.68c-.36.39-.8.59-1.32.59s-.95-.19-1.3-.58c-.34-.39-.51-.97-.51-1.75Zm1.83-1.48c-.26,0-.48.11-.66.34-.17.23-.26.64-.26,1.25,0,.55.09.94.26,1.17.18.22.39.33.65.33s.48-.11.66-.34c.18-.23.26-.64.26-1.24,0-.56-.09-.94-.26-1.17-.18-.23-.39-.34-.66-.34Zm0,8.33l4.7-9.05h.85l-4.68,9.05h-.87Zm3.71-2.33c0-.62.15-1.14.46-1.56.31-.43.76-.64,1.35-.64.54,0,.98.19,1.34.58.36.38.53.95.53,1.69s-.18,1.29-.54,1.68c-.36.39-.8.59-1.32.59s-.95-.19-1.3-.58c-.34-.39-.52-.97-.52-1.75Zm1.84-1.48c-.26,0-.49.11-.66.34-.17.23-.26.64-.26,1.25,0,.55.09.93.26,1.16.18.23.39.34.65.34.27,0,.49-.11.66-.34.18-.23.26-.64.26-1.24,0-.56-.09-.94-.26-1.17-.17-.23-.39-.34-.66-.34Z"/>
  <path class="cls-8" d="m575,114c0,9.85-1.94,19.6-5.71,28.7-3.77,9.1-9.29,17.37-16.26,24.33-6.96,6.96-15.23,12.49-24.33,16.26-9.1,3.77-18.85,5.71-28.7,5.71v-18.75c7.39,0,14.7-1.46,21.53-4.28s13.03-6.97,18.25-12.19c5.22-5.22,9.37-11.42,12.19-18.25,2.83-6.82,4.28-14.14,4.28-21.53h18.75Z"/>
  <path class="cls-10" d="m500,189c-14.83,0-29.33-4.4-41.67-12.64-12.33-8.24-21.95-19.95-27.62-33.66-5.68-13.7-7.16-28.78-4.27-43.33,2.89-14.55,10.04-27.91,20.53-38.4,10.49-10.49,23.85-17.63,38.4-20.53,14.55-2.89,29.63-1.41,43.33,4.27,13.71,5.68,25.42,15.29,33.66,27.62,8.24,12.33,12.64,26.83,12.64,41.67h-18.75c0-11.12-3.3-22-9.48-31.25-6.18-9.25-14.97-16.46-25.24-20.72s-21.59-5.37-32.5-3.2c-10.91,2.17-20.93,7.53-28.8,15.39-7.87,7.87-13.22,17.89-15.39,28.8-2.17,10.91-1.06,22.22,3.2,32.5,4.26,10.28,11.47,19.06,20.72,25.24s20.13,9.48,31.25,9.48v18.75Z"/>
  <path class="cls-6" d="m497.04,116.99v1.01h-5.68c0-.25.03-.5.12-.73.15-.39.38-.77.69-1.14.32-.38.78-.81,1.38-1.3.93-.76,1.56-1.37,1.89-1.82.33-.45.49-.87.49-1.27s-.15-.77-.45-1.05c-.3-.29-.68-.43-1.17-.43-.51,0-.91.15-1.22.46-.3.31-.46.73-.46,1.27l-1.08-.11c.07-.81.35-1.42.84-1.85.49-.43,1.14-.64,1.95-.64s1.48.23,1.96.69c.48.46.72,1.02.72,1.7,0,.34-.07.68-.21,1.01-.14.33-.38.68-.7,1.05-.32.37-.86.87-1.62,1.51-.63.53-1.04.89-1.22,1.08-.18.19-.33.38-.45.57h4.21Zm1.14-1.24l1.11-.09c.08.54.27.95.57,1.22.3.27.66.4,1.08.4.51,0,.94-.19,1.29-.57.35-.38.53-.89.53-1.52s-.17-1.08-.51-1.42c-.34-.35-.78-.52-1.32-.52-.34,0-.65.08-.92.24-.27.15-.49.35-.64.6l-.99-.13.83-4.41h4.27v1.01h-3.43l-.46,2.31c.52-.36,1.06-.54,1.62-.54.75,0,1.38.26,1.9.78.51.52.77,1.19.77,2s-.23,1.45-.68,2.02c-.55.7-1.3,1.04-2.26,1.04-.78,0-1.42-.22-1.92-.66-.49-.44-.77-1.02-.84-1.74Zm6.88-4.28c0-.61.15-1.14.46-1.57.31-.43.76-.64,1.34-.64.54,0,.99.19,1.34.58.36.38.53.95.53,1.69s-.18,1.29-.54,1.68c-.36.39-.8.59-1.32.59s-.95-.19-1.3-.58c-.34-.39-.51-.97-.51-1.75Zm1.83-1.48c-.26,0-.48.11-.66.34-.17.23-.26.64-.26,1.25,0,.55.09.94.26,1.17.18.22.39.33.65.33s.48-.11.66-.34c.18-.23.26-.64.26-1.24,0-.56-.09-.94-.26-1.17-.18-.23-.39-.34-.66-.34Zm0,8.33l4.7-9.05h.85l-4.68,9.05h-.87Zm3.71-2.33c0-.62.15-1.14.46-1.56.31-.43.76-.64,1.35-.64.54,0,.98.19,1.34.58.35.38.53.95.53,1.69s-.18,1.29-.54,1.68c-.36.39-.8.59-1.32.59s-.95-.19-1.3-.58c-.34-.39-.52-.97-.52-1.75Zm1.84-1.48c-.27,0-.49.11-.66.34-.17.23-.26.64-.26,1.25,0,.55.09.93.26,1.16.18.23.39.34.65.34.27,0,.49-.11.66-.34.18-.23.26-.64.26-1.24,0-.56-.09-.94-.26-1.17-.17-.23-.39-.34-.66-.34Z"/>
  <path class="cls-5" d="m301,205h20c2.21,0,4,1.79,4,4h0c0,2.21-1.79,4-4,4h-20c-2.21,0-4-1.79-4-4h0c0-2.21,1.79-4,4-4Z"/>
  <circle class="cls-1" cx="287.5" cy="208.5" r="4.25"/>
  <path class="cls-2" d="m286,218h35c2.21,0,4,1.79,4,4h0c0,2.21-1.79,4-4,4h-35c-2.21,0-4-1.79-4-4h0c0-2.21,1.79-4,4-4Z"/>
  <path class="cls-5" d="m498,210h20c2.21,0,4,1.79,4,4h0c0,2.21-1.79,4-4,4h-20c-2.21,0-4-1.79-4-4h0c0-2.21,1.79-4,4-4Z"/>
  <circle class="cls-1" cx="484.5" cy="213.5" r="4.25"/>
  <path class="cls-2" d="m483,223h35c2.21,0,4,1.79,4,4h0c0,2.21-1.79,4-4,4h-35c-2.21,0-4-1.79-4-4h0c0-2.21,1.79-4,4-4Z"/>
  <path class="cls-5" d="m104,205h20c2.21,0,4,1.79,4,4h0c0,2.21-1.79,4-4,4h-20c-2.21,0-4-1.79-4-4h0c0-2.21,1.79-4,4-4Z"/>
  <circle class="cls-1" cx="90.5" cy="208.5" r="4.25"/>
  <path class="cls-2" d="m89,218h35c2.21,0,4,1.79,4,4h0c0,2.21-1.79,4-4,4h-35c-2.21,0-4-1.79-4-4h0c0-2.21,1.79-4,4-4Z"/>
  <path class="cls-5" d="m96,280h20c2.21,0,4,1.79,4,4h0c0,2.21-1.79,4-4,4h-20c-2.21,0-4-1.79-4-4h0c0-2.21,1.79-4,4-4Z"/>
  <circle class="cls-1" cx="82.5" cy="283.5" r="4.25"/>
  <path class="cls-2" d="m81,293h35c2.21,0,4,1.79,4,4h0c0,2.21-1.79,4-4,4h-35c-2.21,0-4-1.79-4-4h0c0-2.21,1.79-4,4-4Z"/>
  <path class="cls-5" d="m160,280h20c2.21,0,4,1.79,4,4h0c0,2.21-1.79,4-4,4h-20c-2.21,0-4-1.79-4-4h0c0-2.21,1.79-4,4-4Z"/>
  <circle class="cls-1" cx="146.5" cy="283.5" r="4.25"/>
  <path class="cls-2" d="m145,293h35c2.21,0,4,1.79,4,4h0c0,2.21-1.79,4-4,4h-35c-2.21,0-4-1.79-4-4h0c0-2.21,1.79-4,4-4Z"/>
  <path class="cls-5" d="m229,280h20c2.21,0,4,1.79,4,4h0c0,2.21-1.79,4-4,4h-20c-2.21,0-4-1.79-4-4h0c0-2.21,1.79-4,4-4Z"/>
  <circle class="cls-1" cx="215.5" cy="283.5" r="4.25"/>
  <path class="cls-2" d="m214,293h35c2.21,0,4,1.79,4,4h0c0,2.21-1.79,4-4,4h-35c-2.21,0-4-1.79-4-4h0c0-2.21,1.79-4,4-4Z"/>
  <path class="cls-2" d="m536,477h10c2.21,0,4,1.79,4,4h0c0,2.21-1.79,4-4,4h-10c-2.21,0-4-1.79-4-4h0c0-2.21,1.79-4,4-4Z"/>
  <circle class="cls-5" cx="526" cy="481" r="4"/>
  <path class="cls-2" d="m578,477h10c2.21,0,4,1.79,4,4h0c0,2.21-1.79,4-4,4h-10c-2.21,0-4-1.79-4-4h0c0-2.21,1.79-4,4-4Z"/>
  <circle class="cls-5" cx="568" cy="481" r="4"/>
  <path class="cls-2" d="m493,477h10c2.21,0,4,1.79,4,4h0c0,2.21-1.79,4-4,4h-10c-2.21,0-4-1.79-4-4h0c0-2.21,1.79-4,4-4Z"/>
  <circle class="cls-5" cx="483" cy="481" r="4"/>
</svg>