<?xml version="1.0" encoding="UTF-8"?>
<svg id="Layer_1" data-name="Layer 1" xmlns="http://www.w3.org/2000/svg" viewBox="0 0 27.8 27.9">
  <defs>
    <style>
      .cls-1 {
        fill: #f2f2f2;
        stroke-width: 0px;
      }
    </style>
  </defs>
  <path class="cls-1" d="m26.2,10.9c-.5-.5-1-1-1.1-1.4-.2-.4-.2-1.1-.2-1.7,0-1.2,0-2.6-1-3.6s-2.3-1-3.6-1c-.7,0-1.3,0-1.7-.2-.4-.2-1-.7-1.4-1.1-.9-1-1.9-1.9-3.2-1.9s-2.3.9-3.1,1.8c-.5.5-1,1-1.4,1.1-.5.2-1.2.2-1.8.2-1.2,0-2.6,0-3.6,1s-1,2.3-1,3.6c0,.7,0,1.3-.2,1.7s-.7,1-1.1,1.4c-.9.9-1.8,1.9-1.8,3.2s.9,2.3,1.8,3.1c.5.5,1,1,1.1,1.4.2.4.2,1.1.2,1.7,0,1.2,0,2.6,1,3.6s2.3,1,3.6,1c.7,0,1.3,0,1.7.2s1,.7,1.4,1.1c.9.8,1.8,1.8,3.1,1.8s2.3-.9,3.1-1.8c.5-.5,1-1,1.4-1.1.4-.2,1.1-.2,1.7-.2,1.2,0,2.6,0,3.6-1s1-2.3,1-3.6c0-.7,0-1.3.2-1.7.2-.4.7-1,1.1-1.4.8-.9,1.8-1.8,1.8-3.1s-.7-2.3-1.6-3.1Zm-1.4,4.9c-.6.6-1.2,1.3-1.5,2.1-.3.8-.3,1.6-.3,2.5s0,1.8-.4,2.2-1.3.4-2.2.4c-.8,0-1.7,0-2.5.3s-1.4.9-2.1,1.5-1.3,1.2-1.8,1.2-1.1-.6-1.8-1.2-1.3-1.2-2.1-1.5c-.8-.3-1.6-.3-2.5-.3s-1.8,0-2.2-.4-.4-1.3-.4-2.2c0-.8,0-1.7-.3-2.5s-.9-1.4-1.5-2.1-1.2-1.3-1.2-1.8.6-1.1,1.2-1.8,1.2-1.3,1.5-2.1c.3-.8.3-1.6.3-2.5s0-1.8.4-2.2,1.3-.4,2.2-.4c.8,0,1.7,0,2.5-.3s1.4-.9,2.1-1.5,1.3-1.2,1.8-1.2,1.1.6,1.8,1.2,1.3,1.2,2.1,1.5c.8.3,1.6.3,2.5.3s1.8,0,2.2.4.4,1.3.4,2.2c0,.8,0,1.7.3,2.5s.9,1.4,1.5,2.1,1.2,1.3,1.2,1.8-.6,1.1-1.2,1.8Zm-5.1-5.5c.4.4.4,1,0,1.4h0l-7,7c-.4.4-1,.4-1.4,0h0l-3-3c-.4-.4-.4-1,0-1.4s1-.4,1.4,0l2.3,2.3,6.3-6.3c.4-.4,1-.4,1.4,0h0Z"/>
</svg>